# xmcd CD database file
#
# Track frame offsets:
#	150
#	12728
#	28063
#	42742
#	54131
#	69869
#	86950
#	101424
#	114194
#	132602
#	148253
#	164538
#	181730
#
# Disc length: 2622 seconds
#
# Revision: 1
# Processed by: cddbd v1.5.2PL0 Copyright (c) Steve Scherf et al.
# Submitted via: CDex 1.70beta2
#
DISCID=b70a3c0d
DTITLE=Valentina - Why Not Me
DYEAR=2007
DGENRE=Country
TTITLE0=Goof Grief Chrisitina
TTITLE1=Good As I Was To You
TTITLE2=Hot Legs
TTITLE3=My Baby Loves Me
TTITLE4=Why Not Me
TTITLE5=The Salt In My Tears
TTITLE6=San Bernadino
TTITLE7=Toot Toot
TTITLE8=Maybe It Was Memphis
TTITLE9=Queen Of Hearts
TTITLE10=If You Can't Give Me Love
TTITLE11=Sylivia's Mother
TTITLE12=Sally Was A Good Old Girl
EXTD=YEAR: 2007
EXTT0=
EXTT1=
EXTT2=
EXTT3=
EXTT4=
EXTT5=
EXTT6=
EXTT7=
EXTT8=
EXTT9=
EXTT10=
EXTT11=
EXTT12=
PLAYORDER=
